<?xml version="1.0" standalone="no"?>
<!DOCTYPE svg PUBLIC "-//W3C//DTD SVG 20010904//EN"
 "http://www.w3.org/TR/2001/REC-SVG-20010904/DTD/svg10.dtd">
<svg version="1.0" xmlns="http://www.w3.org/2000/svg"
 width="179.000000pt" height="206.000000pt" viewBox="0 0 179.000000 206.000000"
 preserveAspectRatio="xMidYMid meet">
<metadata>
Created by potrace 1.16, written by Peter Selinger 2001-2019
</metadata>
<g transform="translate(0.000000,206.000000) scale(0.100000,-0.100000)"
fill="#000000" stroke="none">
<path d="M1549 1547 c-9 -7 -19 -23 -24 -37 -4 -14 -56 -75 -117 -136 -106
-107 -109 -111 -97 -137 7 -15 15 -27 18 -27 4 0 57 51 120 114 76 76 123 116
143 120 66 13 52 118 -15 116 -7 0 -19 -6 -28 -13z"/>
<path d="M854 1400 c-207 -30 -362 -243 -325 -446 39 -214 229 -354 440 -324
56 8 141 41 183 72 13 9 20 9 33 -2 9 -7 14 -19 11 -25 -6 -16 265 -285 287
-285 22 0 57 35 57 57 0 22 -269 293 -285 287 -6 -3 -18 2 -25 11 -11 13 -11
20 -2 33 112 158 99 371 -30 504 -88 90 -221 136 -344 118z m201 -92 c70 -36
123 -91 157 -165 27 -57 30 -72 26 -141 -6 -133 -70 -226 -194 -284 -58 -27
-72 -30 -142 -26 -92 4 -156 32 -219 94 -72 73 -88 114 -88 229 0 79 4 107 19
135 47 86 119 150 201 177 64 21 180 11 240 -19z"/>
<path d="M765 1165 c-18 -17 -25 -35 -25 -62 0 -31 -8 -45 -45 -83 -44 -44
-45 -47 -34 -79 l12 -33 56 56 c67 66 102 73 158 30 27 -20 33 -32 33 -62 0
-71 57 -112 117 -87 37 16 53 42 53 86 0 26 10 44 44 79 41 42 43 47 34 79
l-9 34 -60 -59 c-54 -53 -63 -58 -97 -55 -52 4 -92 43 -92 91 0 80 -91 120
-145 65z"/>
<path d="M375 700 c-66 -66 -128 -120 -137 -120 -24 0 -51 -44 -43 -70 16 -51
82 -50 107 2 9 18 63 83 122 144 101 107 105 113 93 138 -7 14 -14 26 -17 26
-3 0 -59 -54 -125 -120z"/>
</g>
</svg>
